<svg width="27" height="23" viewBox="0 0 27 23" fill="none" xmlns="http://www.w3.org/2000/svg">
<g id="Group">
<g id="Group_2">
<path id="Vector" d="M26.6523 3.20939C25.6643 3.64279 24.6115 3.93006 23.5139 4.06955C24.6431 3.39537 25.5049 2.33594 25.9101 1.05898C24.8573 1.68667 23.6949 2.13003 22.4561 2.37745C21.4565 1.31304 20.0317 0.653809 18.4775 0.653809C15.4619 0.653809 13.0342 3.10145 13.0342 6.10205C13.0342 6.53379 13.0707 6.94893 13.1604 7.34414C8.6321 7.12329 4.62521 4.95296 1.93346 1.64681C1.46353 2.46214 1.18788 3.39537 1.18788 4.39999C1.18788 6.28637 2.1593 7.95854 3.60729 8.92664C2.73219 8.91003 1.87368 8.65597 1.14637 8.25578C1.14637 8.27238 1.14637 8.29397 1.14637 8.31556C1.14637 10.9625 3.0344 13.161 5.51027 13.6675C5.06691 13.7887 4.58369 13.8468 4.08221 13.8468C3.73349 13.8468 3.38146 13.8269 3.05101 13.7538C3.75674 15.9109 5.75936 17.4967 8.14058 17.5482C6.28741 18.9978 3.93442 19.8713 1.38715 19.8713C0.940459 19.8713 0.512038 19.8514 0.0836182 19.7966C2.49639 21.3525 5.35584 22.2409 8.43947 22.2409C18.4625 22.2409 23.9423 13.9382 23.9423 6.74136C23.9423 6.50058 23.934 6.26811 23.9224 6.03729C25.0034 5.27012 25.9117 4.31199 26.6523 3.20939Z" fill="#808080"/>
</g>
</g>
</svg>
