<svg width="28" height="19" viewBox="0 0 28 19" fill="none" xmlns="http://www.w3.org/2000/svg">
<g id="Group">
<g id="Group_2">
<path id="Vector" d="M26.2324 2.07463C25.5117 0.79269 24.7296 0.556892 23.1372 0.467223C21.5464 0.359288 17.5461 0.314453 14.0805 0.314453C10.6084 0.314453 6.60644 0.359288 5.0173 0.465563C3.42816 0.556893 2.64438 0.791029 1.91707 2.07463C1.1748 3.35491 0.792877 5.56011 0.792877 9.44246C0.792877 9.44578 0.792877 9.44744 0.792877 9.44744C0.792877 9.45076 0.792877 9.45243 0.792877 9.45243V9.45575C0.792877 13.3215 1.1748 15.5433 1.91707 16.8103C2.64438 18.0922 3.4265 18.3247 5.01564 18.4326C6.60644 18.5256 10.6084 18.5804 14.0805 18.5804C17.5461 18.5804 21.5464 18.5256 23.1388 18.4343C24.7313 18.3264 25.5134 18.0939 26.2341 16.812C26.983 15.545 27.3616 13.3232 27.3616 9.45741C27.3616 9.45741 27.3616 9.45243 27.3616 9.4491C27.3616 9.4491 27.3616 9.44578 27.3616 9.44412C27.3616 5.56011 26.983 3.35491 26.2324 2.07463ZM10.7561 14.4291V4.46581L19.0589 9.44744L10.7561 14.4291Z" fill="#808080"/>
</g>
</g>
</svg>
